<svg width="84" height="84" viewBox="0 0 84 84" fill="none" xmlns="http://www.w3.org/2000/svg">
<path d="M29.6215 10.3913C32.5891 9.35084 35.8507 10.7541 36.9048 13.5242C37.7116 15.645 36.9896 17.9504 35.2778 19.3827L36.2028 21.9051L37.6745 23.6033C38.0104 23.992 38.52 24.1778 39.0307 24.115C40.4076 23.9456 41.776 23.9392 43.116 24.0801C43.5701 24.1283 44.0218 23.9783 44.3478 23.6615L45.4098 22.6338L46.1927 20.3545C45.5266 19.4402 45.301 18.2294 45.696 17.079C46.3662 15.1288 48.5554 14.1208 50.5024 14.9194C52.1796 15.6066 53.0921 17.4721 52.6011 19.2082C52.2891 20.314 51.4996 21.1422 50.5278 21.552L49.661 24.078L49.8587 25.4697C49.9266 25.9481 50.2108 26.3661 50.6258 26.6166C52.0212 27.4634 53.3029 28.4986 54.4281 29.6953C54.8061 30.0981 55.3703 30.2708 55.9125 30.1616L58.7032 29.6013L61.8559 27.8528C61.8722 26.3025 62.7009 24.8037 64.1594 23.9947C66.3646 22.7723 69.1574 23.5938 70.3325 25.8338C71.3932 27.8545 70.7273 30.3946 68.806 31.6387C67.3057 32.6083 65.475 32.5729 64.0619 31.7448L60.8904 33.5026L59.1193 35.3836C58.644 35.8883 58.4746 36.602 58.6561 37.2702C58.6572 37.2742 58.6579 37.2768 58.6589 37.2808C58.9692 38.4323 59.1576 39.5895 59.2355 40.7367C59.2806 41.4201 59.6675 42.0349 60.2732 42.3616L62.5847 43.6075L67.166 44.4715C67.9736 43.7682 69.0861 43.428 70.223 43.6414C72.2613 44.0263 73.5735 46.0435 73.0512 48.0742C72.6021 49.8132 70.8886 50.9709 69.0969 50.743C67.875 50.5877 66.8885 49.8533 66.3587 48.866L61.7477 47.9973L58.9035 48.3433C58.3792 48.4083 57.9215 48.7362 57.7077 49.2163C56.8568 51.1117 55.6826 52.8549 54.2329 54.3598C53.8726 54.7337 53.7375 55.269 53.8682 55.7702L54.575 58.4988L56.32 61.2273C58.2396 60.94 60.2369 61.7675 61.3449 63.5006C62.8346 65.8288 62.1589 68.9118 59.8405 70.414C57.5234 71.9158 54.3702 71.2623 52.8515 68.963C51.7881 67.3535 51.7764 65.3677 52.6384 63.7924L50.7859 60.8965L48.5082 59.028C48.1708 58.7497 47.7113 58.6761 47.2997 58.8225C46.8428 58.9851 46.3771 59.1304 45.9007 59.2573C43.3122 59.9471 40.7024 60.036 38.2201 59.6142C37.8562 59.5532 37.4841 59.6566 37.2057 59.8972L35.9834 60.9564L35.0743 63.1889C35.6893 64.1394 35.8465 65.3599 35.3883 66.4863C34.6098 68.3977 32.3676 69.2829 30.4688 68.3784C28.8335 67.5997 28.0259 65.6864 28.6128 63.9798C28.9865 62.8928 29.8194 62.1095 30.813 61.7545L31.8199 59.2801L31.633 57.1069C29.8169 55.9729 28.2008 54.5177 26.8793 52.7978L23.7733 53.1035L20.8662 54.537C20.8851 56.4813 19.8815 58.3313 18.1201 59.2267C15.6311 60.4908 12.5738 59.3717 11.2921 56.7257C10.0108 54.081 10.9881 50.9121 13.477 49.6479C15.3396 48.7016 17.5193 49.0899 19.0358 50.4546L21.7775 49.1019L23.6802 47.0673C23.8045 46.934 23.8506 46.7468 23.8034 46.5718L23.8027 46.5692C22.9233 43.3054 23.0131 40.0062 23.8953 36.974C23.9426 36.8076 23.907 36.6281 23.7948 36.4958L22.1533 34.5409L18.6167 32.6905C17.6426 33.1179 16.4877 33.1168 15.4721 32.5848C13.6374 31.6237 12.9763 29.3173 14.0699 27.5279C15.0301 25.9588 17.075 25.3631 18.7356 26.1675C19.8105 26.6879 20.5039 27.6612 20.7089 28.7378L24.2455 30.5883L26.7629 30.8244C26.9376 30.8413 27.1079 30.7677 27.2189 30.6324C28.3606 29.2265 29.7197 27.9856 31.2637 26.9676C31.6873 26.6869 31.9506 26.2217 31.9574 25.715L31.9833 23.4371L30.9967 20.7492C28.8576 20.5956 26.9226 19.3043 26.1557 17.2899C25.1016 14.5198 26.6535 11.4305 29.6215 10.3913Z" fill="#EC5863"/>
<path d="M54.1358 38.486C52.2261 31.3979 44.9002 27.1915 37.7729 29.0908C30.6457 30.99 26.4161 38.2757 28.3258 45.3638C30.2355 52.4518 37.5615 56.6582 44.6887 54.759C51.8159 52.8597 56.0456 45.5741 54.1358 38.486Z" fill="#F58A97"/>
<path d="M43.6347 50.8472C37.176 52.5683 30.5545 49.2757 27.9477 43.3682C28.0215 44.0321 28.1466 44.6988 28.3258 45.3638C30.2356 52.452 37.5613 56.6583 44.6887 54.759C51.8161 52.8597 56.0456 45.5742 54.1358 38.486C53.9567 37.821 53.7299 37.1814 53.46 36.5698C54.1724 42.9819 50.0933 49.1261 43.6347 50.8472Z" fill="#F07281"/>
<path d="M23.5875 69.771C23.0437 67.7525 20.9574 66.5546 18.9278 67.0955C16.8982 67.6364 15.6937 69.7111 16.2375 71.7296C16.7814 73.7481 18.8676 74.946 20.8972 74.4051C22.9269 73.8642 24.1313 71.7895 23.5875 69.771Z" fill="#EB5569"/>
<path d="M71.0511 58.1937C70.6919 56.8605 69.3139 56.0693 67.9733 56.4265C66.6327 56.7838 65.8372 58.1542 66.1964 59.4874C66.5556 60.8206 67.9336 61.6118 69.2742 61.2546C70.6148 60.8974 71.4103 59.527 71.0511 58.1937Z" fill="#EB5569"/>
<path d="M64.2446 12.5022C63.7155 10.5385 61.6858 9.3731 59.7112 9.89929C57.7366 10.4255 56.5648 12.444 57.0939 14.4077C57.623 16.3715 59.6526 17.5369 61.6272 17.0107C63.6018 16.4845 64.7737 14.466 64.2446 12.5022Z" fill="#EB5569"/>
<path d="M42.0664 45.9246C41.5732 44.0937 39.6809 43.0072 37.84 43.4978C35.999 43.9884 34.9065 45.8702 35.3998 47.7011C35.8931 49.5319 37.7853 50.6184 39.6263 50.1278C41.4672 49.6372 42.5597 47.7554 42.0664 45.9246Z" fill="#EB5569"/>
<path d="M50.6385 40.7882C50.3027 39.5421 49.0147 38.8026 47.7617 39.1365C46.5087 39.4704 45.7651 40.7513 46.1008 41.9974C46.4366 43.2436 47.7245 43.9831 48.9776 43.6492C50.2306 43.3153 50.9742 42.0344 50.6385 40.7882Z" fill="#EB5569"/>
<path d="M41.5714 35.6106C41.2894 34.5642 40.2079 33.9432 39.1557 34.2236C38.1035 34.504 37.4791 35.5796 37.761 36.626C38.0429 37.6724 39.1245 38.2934 40.1767 38.013C41.2289 37.7326 41.8533 36.657 41.5714 35.6106Z" fill="#EB5569"/>
</svg>
