<svg width="134" height="40" viewBox="0 0 134 40" fill="none" xmlns="http://www.w3.org/2000/svg">
<path d="M45.462 25.18C44.322 25.18 43.338 24.994 42.51 24.622C41.694 24.238 41.058 23.686 40.602 22.966C40.158 22.234 39.912 21.346 39.864 20.302C39.852 19.786 39.846 19.24 39.846 18.664C39.846 18.076 39.852 17.518 39.864 16.99C39.912 15.97 40.164 15.106 40.62 14.398C41.076 13.69 41.718 13.15 42.546 12.778C43.374 12.406 44.346 12.22 45.462 12.22C46.362 12.22 47.16 12.334 47.856 12.562C48.552 12.778 49.134 13.072 49.602 13.444C50.082 13.816 50.442 14.224 50.682 14.668C50.934 15.112 51.066 15.55 51.078 15.982C51.09 16.09 51.054 16.18 50.97 16.252C50.898 16.324 50.808 16.36 50.7 16.36H48.072C47.94 16.36 47.838 16.342 47.766 16.306C47.706 16.258 47.652 16.192 47.604 16.108C47.52 15.928 47.394 15.742 47.226 15.55C47.07 15.346 46.848 15.172 46.56 15.028C46.284 14.884 45.918 14.812 45.462 14.812C44.778 14.812 44.238 14.992 43.842 15.352C43.458 15.712 43.248 16.288 43.212 17.08C43.176 18.112 43.176 19.156 43.212 20.212C43.248 21.052 43.47 21.658 43.878 22.03C44.286 22.402 44.826 22.588 45.498 22.588C45.954 22.588 46.356 22.51 46.704 22.354C47.064 22.198 47.346 21.958 47.55 21.634C47.754 21.298 47.856 20.872 47.856 20.356V20.014H46.164C46.032 20.014 45.918 19.972 45.822 19.888C45.738 19.792 45.696 19.678 45.696 19.546V18.214C45.696 18.082 45.738 17.974 45.822 17.89C45.918 17.794 46.032 17.746 46.164 17.746H50.7C50.832 17.746 50.94 17.794 51.024 17.89C51.108 17.974 51.15 18.082 51.15 18.214V20.266C51.15 21.298 50.916 22.18 50.448 22.912C49.98 23.644 49.314 24.208 48.45 24.604C47.598 24.988 46.602 25.18 45.462 25.18ZM57.4451 25.18C56.4371 25.18 55.5851 25.018 54.8891 24.694C54.2051 24.37 53.6771 23.908 53.3051 23.308C52.9451 22.696 52.7411 21.97 52.6931 21.13C52.6811 20.89 52.6751 20.62 52.6751 20.32C52.6751 20.008 52.6811 19.738 52.6931 19.51C52.7411 18.658 52.9571 17.932 53.3411 17.332C53.7251 16.732 54.2591 16.27 54.9431 15.946C55.6391 15.622 56.4731 15.46 57.4451 15.46C58.4291 15.46 59.2631 15.622 59.9471 15.946C60.6431 16.27 61.1831 16.732 61.5671 17.332C61.9511 17.932 62.1671 18.658 62.2151 19.51C62.2271 19.738 62.2331 20.008 62.2331 20.32C62.2331 20.62 62.2271 20.89 62.2151 21.13C62.1671 21.97 61.9571 22.696 61.5851 23.308C61.2251 23.908 60.6971 24.37 60.0011 24.694C59.3171 25.018 58.4651 25.18 57.4451 25.18ZM57.4451 22.984C57.9851 22.984 58.3751 22.822 58.6151 22.498C58.8671 22.174 59.0111 21.688 59.0471 21.04C59.0591 20.86 59.0651 20.62 59.0651 20.32C59.0651 20.02 59.0591 19.78 59.0471 19.6C59.0111 18.964 58.8671 18.484 58.6151 18.16C58.3751 17.824 57.9851 17.656 57.4451 17.656C56.9171 17.656 56.5271 17.824 56.2751 18.16C56.0231 18.484 55.8851 18.964 55.8611 19.6C55.8491 19.78 55.8431 20.02 55.8431 20.32C55.8431 20.62 55.8491 20.86 55.8611 21.04C55.8851 21.688 56.0231 22.174 56.2751 22.498C56.5271 22.822 56.9171 22.984 57.4451 22.984Z" fill="white"/>
<path d="M69.3674 25.18C68.2274 25.18 67.2494 24.994 66.4334 24.622C65.6294 24.25 64.9994 23.704 64.5434 22.984C64.0994 22.264 63.8534 21.37 63.8054 20.302C63.7934 19.81 63.7874 19.282 63.7874 18.718C63.7874 18.154 63.7934 17.614 63.8054 17.098C63.8534 16.054 64.1054 15.172 64.5614 14.452C65.0174 13.72 65.6534 13.168 66.4694 12.796C67.2854 12.412 68.2514 12.22 69.3674 12.22C70.1594 12.22 70.8914 12.322 71.5634 12.526C72.2354 12.718 72.8234 13.006 73.3274 13.39C73.8314 13.762 74.2214 14.218 74.4974 14.758C74.7854 15.286 74.9354 15.886 74.9474 16.558C74.9594 16.666 74.9234 16.756 74.8394 16.828C74.7674 16.9 74.6774 16.936 74.5694 16.936H72.1394C71.9834 16.936 71.8634 16.906 71.7794 16.846C71.6954 16.774 71.6234 16.648 71.5634 16.468C71.3954 15.832 71.1194 15.4 70.7354 15.172C70.3634 14.932 69.9014 14.812 69.3494 14.812C68.6894 14.812 68.1674 14.998 67.7834 15.37C67.3994 15.73 67.1894 16.336 67.1534 17.188C67.1174 18.172 67.1174 19.18 67.1534 20.212C67.1894 21.064 67.3994 21.676 67.7834 22.048C68.1674 22.408 68.6894 22.588 69.3494 22.588C69.9014 22.588 70.3694 22.468 70.7534 22.228C71.1374 21.988 71.4074 21.556 71.5634 20.932C71.6114 20.752 71.6774 20.632 71.7614 20.572C71.8574 20.5 71.9834 20.464 72.1394 20.464H74.5694C74.6774 20.464 74.7674 20.5 74.8394 20.572C74.9234 20.644 74.9594 20.734 74.9474 20.842C74.9354 21.514 74.7854 22.12 74.4974 22.66C74.2214 23.188 73.8314 23.644 73.3274 24.028C72.8234 24.4 72.2354 24.688 71.5634 24.892C70.8914 25.084 70.1594 25.18 69.3674 25.18ZM81.0701 25.18C80.0621 25.18 79.2101 25.018 78.5141 24.694C77.8301 24.37 77.3021 23.908 76.9301 23.308C76.5701 22.696 76.3661 21.97 76.3181 21.13C76.3061 20.89 76.3001 20.62 76.3001 20.32C76.3001 20.008 76.3061 19.738 76.3181 19.51C76.3661 18.658 76.5821 17.932 76.9661 17.332C77.3501 16.732 77.8841 16.27 78.5681 15.946C79.2641 15.622 80.0981 15.46 81.0701 15.46C82.0541 15.46 82.8881 15.622 83.5721 15.946C84.2681 16.27 84.8081 16.732 85.1921 17.332C85.5761 17.932 85.7921 18.658 85.8401 19.51C85.8521 19.738 85.8581 20.008 85.8581 20.32C85.8581 20.62 85.8521 20.89 85.8401 21.13C85.7921 21.97 85.5821 22.696 85.2101 23.308C84.8501 23.908 84.3221 24.37 83.6261 24.694C82.9421 25.018 82.0901 25.18 81.0701 25.18ZM81.0701 22.984C81.6101 22.984 82.0001 22.822 82.2401 22.498C82.4921 22.174 82.6361 21.688 82.6721 21.04C82.6841 20.86 82.6901 20.62 82.6901 20.32C82.6901 20.02 82.6841 19.78 82.6721 19.6C82.6361 18.964 82.4921 18.484 82.2401 18.16C82.0001 17.824 81.6101 17.656 81.0701 17.656C80.5421 17.656 80.1521 17.824 79.9001 18.16C79.6481 18.484 79.5101 18.964 79.4861 19.6C79.4741 19.78 79.4681 20.02 79.4681 20.32C79.4681 20.62 79.4741 20.86 79.4861 21.04C79.5101 21.688 79.6481 22.174 79.9001 22.498C80.1521 22.822 80.5421 22.984 81.0701 22.984ZM88.0784 25C87.9464 25 87.8384 24.958 87.7544 24.874C87.6704 24.79 87.6284 24.682 87.6284 24.55V16.09C87.6284 15.97 87.6704 15.868 87.7544 15.784C87.8384 15.688 87.9464 15.64 88.0784 15.64H90.1484C90.2804 15.64 90.3884 15.688 90.4724 15.784C90.5564 15.868 90.5984 15.97 90.5984 16.09V16.81C90.9224 16.438 91.3064 16.15 91.7504 15.946C92.2064 15.742 92.7164 15.64 93.2804 15.64H94.0724C94.1924 15.64 94.2944 15.682 94.3784 15.766C94.4744 15.85 94.5224 15.958 94.5224 16.09V17.944C94.5224 18.064 94.4744 18.172 94.3784 18.268C94.2944 18.352 94.1924 18.394 94.0724 18.394H92.3264C91.8344 18.394 91.4504 18.532 91.1744 18.808C90.9104 19.072 90.7784 19.45 90.7784 19.942V24.55C90.7784 24.682 90.7304 24.79 90.6344 24.874C90.5504 24.958 90.4424 25 90.3104 25H88.0784ZM100.16 25.18C99.1519 25.18 98.2999 25.018 97.6039 24.694C96.9199 24.37 96.3919 23.908 96.0199 23.308C95.6599 22.696 95.4559 21.97 95.4079 21.13C95.3959 20.89 95.3899 20.62 95.3899 20.32C95.3899 20.008 95.3959 19.738 95.4079 19.51C95.4559 18.658 95.6719 17.932 96.0559 17.332C96.4399 16.732 96.9739 16.27 97.6579 15.946C98.3539 15.622 99.1879 15.46 100.16 15.46C101.144 15.46 101.978 15.622 102.662 15.946C103.358 16.27 103.898 16.732 104.282 17.332C104.666 17.932 104.882 18.658 104.93 19.51C104.942 19.738 104.948 20.008 104.948 20.32C104.948 20.62 104.942 20.89 104.93 21.13C104.882 21.97 104.672 22.696 104.3 23.308C103.94 23.908 103.412 24.37 102.716 24.694C102.032 25.018 101.18 25.18 100.16 25.18ZM100.16 22.984C100.7 22.984 101.09 22.822 101.33 22.498C101.582 22.174 101.726 21.688 101.762 21.04C101.774 20.86 101.78 20.62 101.78 20.32C101.78 20.02 101.774 19.78 101.762 19.6C101.726 18.964 101.582 18.484 101.33 18.16C101.09 17.824 100.7 17.656 100.16 17.656C99.6319 17.656 99.2419 17.824 98.9899 18.16C98.7379 18.484 98.5999 18.964 98.5759 19.6C98.5639 19.78 98.5579 20.02 98.5579 20.32C98.5579 20.62 98.5639 20.86 98.5759 21.04C98.5999 21.688 98.7379 22.174 98.9899 22.498C99.2419 22.822 99.6319 22.984 100.16 22.984ZM107.168 25C107.036 25 106.928 24.958 106.844 24.874C106.76 24.79 106.718 24.682 106.718 24.55V16.09C106.718 15.958 106.76 15.85 106.844 15.766C106.928 15.682 107.036 15.64 107.168 15.64H109.238C109.37 15.64 109.478 15.682 109.562 15.766C109.646 15.85 109.688 15.958 109.688 16.09V16.774C110 16.402 110.408 16.09 110.912 15.838C111.416 15.586 112.01 15.46 112.694 15.46C113.39 15.46 114.002 15.616 114.53 15.928C115.07 16.24 115.49 16.702 115.79 17.314C116.102 17.914 116.258 18.652 116.258 19.528V24.55C116.258 24.682 116.21 24.79 116.114 24.874C116.03 24.958 115.928 25 115.808 25H113.54C113.42 25 113.312 24.958 113.216 24.874C113.132 24.79 113.09 24.682 113.09 24.55V19.636C113.09 19.072 112.952 18.64 112.676 18.34C112.412 18.028 112.016 17.872 111.488 17.872C110.996 17.872 110.6 18.028 110.3 18.34C110.012 18.64 109.868 19.072 109.868 19.636V24.55C109.868 24.682 109.82 24.79 109.724 24.874C109.64 24.958 109.538 25 109.418 25H107.168ZM121.075 25.18C120.427 25.18 119.845 25.06 119.329 24.82C118.825 24.568 118.423 24.232 118.123 23.812C117.823 23.392 117.673 22.918 117.673 22.39C117.673 21.538 118.021 20.866 118.717 20.374C119.413 19.87 120.337 19.528 121.489 19.348L123.739 19.006V18.754C123.739 18.322 123.649 17.992 123.469 17.764C123.289 17.536 122.959 17.422 122.479 17.422C122.143 17.422 121.867 17.488 121.651 17.62C121.447 17.752 121.285 17.932 121.165 18.16C121.057 18.316 120.907 18.394 120.715 18.394H118.699C118.567 18.394 118.465 18.358 118.393 18.286C118.321 18.202 118.291 18.106 118.303 17.998C118.303 17.782 118.381 17.536 118.537 17.26C118.705 16.972 118.957 16.69 119.293 16.414C119.629 16.138 120.061 15.91 120.589 15.73C121.117 15.55 121.753 15.46 122.497 15.46C123.277 15.46 123.943 15.55 124.495 15.73C125.047 15.91 125.491 16.162 125.827 16.486C126.175 16.81 126.433 17.194 126.601 17.638C126.769 18.07 126.853 18.55 126.853 19.078V24.55C126.853 24.682 126.805 24.79 126.709 24.874C126.625 24.958 126.523 25 126.403 25H124.315C124.183 25 124.075 24.958 123.991 24.874C123.907 24.79 123.865 24.682 123.865 24.55V23.92C123.709 24.148 123.499 24.358 123.235 24.55C122.971 24.742 122.659 24.892 122.299 25C121.951 25.12 121.543 25.18 121.075 25.18ZM121.921 23.128C122.269 23.128 122.581 23.056 122.857 22.912C123.145 22.756 123.367 22.522 123.523 22.21C123.691 21.886 123.775 21.484 123.775 21.004V20.752L122.245 21.022C121.681 21.118 121.267 21.268 121.003 21.472C120.751 21.664 120.625 21.892 120.625 22.156C120.625 22.36 120.685 22.534 120.805 22.678C120.925 22.822 121.081 22.936 121.273 23.02C121.465 23.092 121.681 23.128 121.921 23.128Z" fill="#EC5863"/>
<path d="M14.2208 4.98869C15.6455 4.48917 17.2113 5.16285 17.7174 6.49273C18.1048 7.51091 17.7581 8.61769 16.9363 9.30529L17.3804 10.5163L18.0869 11.3316C18.2482 11.5182 18.4928 11.6074 18.738 11.5772C19.3991 11.4959 20.056 11.4928 20.6993 11.5604C20.9173 11.5836 21.1342 11.5116 21.2907 11.3595L21.8005 10.8661L22.1764 9.77185C21.8566 9.33293 21.7483 8.75165 21.9379 8.19933C22.2597 7.26306 23.3107 6.77916 24.2454 7.16256C25.0506 7.49245 25.4887 8.38808 25.253 9.22153C25.1032 9.75239 24.7241 10.15 24.2576 10.3468L23.8415 11.5594L23.9364 12.2276C23.969 12.4573 24.1054 12.6579 24.3046 12.7782C24.9746 13.1847 25.5899 13.6817 26.1301 14.2562C26.3116 14.4496 26.5824 14.5325 26.8427 14.4801L28.1825 14.2111L29.696 13.3717C29.7039 12.6274 30.1017 11.9079 30.8019 11.5195C31.8606 10.9326 33.2014 11.327 33.7655 12.4024C34.2748 13.3725 33.9551 14.592 33.0327 15.1892C32.3124 15.6547 31.4335 15.6377 30.7551 15.2402L29.2325 16.084L28.3823 16.9871C28.1541 17.2294 28.0728 17.572 28.1599 17.8928C28.1604 17.8947 28.1607 17.896 28.1612 17.8979C28.3102 18.4507 28.4006 19.0063 28.438 19.557C28.4597 19.8851 28.6454 20.1803 28.9362 20.3371L30.0459 20.9353L32.2454 21.35C32.6331 21.0124 33.1672 20.8491 33.7129 20.9515C34.6915 21.1363 35.3215 22.1048 35.0707 23.0797C34.8551 23.9145 34.0325 24.4703 33.1723 24.3609C32.5857 24.2863 32.1121 23.9338 31.8578 23.4598L29.6441 23.0427L28.2787 23.2089C28.027 23.24 27.8072 23.3975 27.7045 23.628C27.296 24.5379 26.7323 25.3748 26.0363 26.0973C25.8634 26.2768 25.7985 26.5338 25.8613 26.7744L26.2006 28.0843L27.0384 29.3942C27.9599 29.2563 28.9188 29.6536 29.4507 30.4856C30.1659 31.6034 29.8415 33.0834 28.7285 33.8046C27.6161 34.5257 26.1023 34.2119 25.3732 33.1081C24.8627 32.3353 24.8571 31.382 25.2709 30.6257L24.3815 29.2354L23.288 28.3384C23.126 28.2048 22.9054 28.1695 22.7078 28.2397C22.4885 28.3178 22.2649 28.3876 22.0362 28.4485C20.7935 28.7796 19.5406 28.8223 18.3489 28.6198C18.1742 28.5905 17.9955 28.6402 17.8619 28.7557L17.275 29.2642L16.8386 30.336C17.1339 30.7923 17.2093 31.3783 16.9894 31.919C16.6156 32.8366 15.5392 33.2616 14.6276 32.8274C13.8425 32.4535 13.4548 31.535 13.7365 30.7157C13.916 30.1939 14.3158 29.8178 14.7928 29.6473L15.2762 28.4594L15.1865 27.4161C14.3146 26.8717 13.5388 26.1731 12.9043 25.3474L11.4132 25.4942L10.0175 26.1823C10.0266 27.1158 9.54481 28.0039 8.69917 28.4338C7.50425 29.0407 6.03647 28.5034 5.42116 27.2331C4.80603 25.9634 5.2752 24.4421 6.47011 23.8352C7.36432 23.3809 8.41072 23.5673 9.13878 24.2224L10.455 23.573L11.3685 22.5962C11.4282 22.5323 11.4503 22.4424 11.4276 22.3584L11.4273 22.3571C11.0051 20.7902 11.0482 19.2063 11.4717 17.7506C11.4945 17.6707 11.4774 17.5846 11.4235 17.521L10.6354 16.5826L8.93757 15.6942C8.46991 15.8994 7.91549 15.8988 7.42792 15.6434C6.5471 15.182 6.22971 14.0748 6.75475 13.2157C7.21569 12.4624 8.19746 12.1764 8.99468 12.5626C9.51072 12.8124 9.84361 13.2797 9.94202 13.7966L11.6399 14.6849L12.8484 14.7983C12.9323 14.8064 13.0141 14.7711 13.0674 14.7061C13.6155 14.0312 14.268 13.4354 15.0092 12.9467C15.2126 12.8119 15.339 12.5886 15.3422 12.3453L15.3547 11.2518L14.881 9.96133C13.8541 9.88759 12.9251 9.26768 12.557 8.30058C12.0509 6.97071 12.7959 5.48757 14.2208 4.98869Z" fill="#EC5863"/>
<path d="M25.9898 18.4765C25.0729 15.0736 21.5559 13.0542 18.1342 13.966C14.7125 14.8778 12.6819 18.3755 13.5988 21.7784C14.5156 25.1813 18.0327 27.2007 21.4543 26.2889C24.876 25.3771 26.9066 21.8794 25.9898 18.4765Z" fill="#F58A97"/>
<path d="M20.9484 24.4109C17.8476 25.2372 14.6687 23.6565 13.4172 20.8204C13.4527 21.1391 13.5128 21.4592 13.5988 21.7784C14.5156 25.1814 18.0326 27.2007 21.4543 26.2889C24.8761 25.3771 26.9066 21.8795 25.9898 18.4765C25.9037 18.1573 25.7949 17.8502 25.6653 17.5566C26.0073 20.6349 24.049 23.5847 20.9484 24.4109Z" fill="#F07281"/>
<path d="M11.324 33.496C11.0629 32.5269 10.0613 31.9518 9.08694 32.2115C8.11255 32.4711 7.53429 33.4672 7.79538 34.4362C8.05647 35.4053 9.05803 35.9804 10.0324 35.7207C11.0068 35.4611 11.5851 34.465 11.324 33.496Z" fill="#EB5569"/>
<path d="M34.1105 27.9379C33.9381 27.2978 33.2765 26.918 32.6329 27.0895C31.9893 27.261 31.6074 27.9189 31.7799 28.559C31.9523 29.199 32.6138 29.5789 33.2574 29.4074C33.901 29.2359 34.283 28.5779 34.1105 27.9379Z" fill="#EB5569"/>
<path d="M30.8428 6.00213C30.5888 5.05936 29.6144 4.49988 28.6664 4.75249C27.7184 5.0051 27.1559 5.97416 27.4099 6.91693C27.6639 7.8597 28.6383 8.41918 29.5863 8.16656C30.5343 7.91395 31.0968 6.9449 30.8428 6.00213Z" fill="#EB5569"/>
<path d="M20.1955 22.0477C19.9586 21.1687 19.0502 20.6471 18.1664 20.8826C17.2826 21.1181 16.7581 22.0216 16.9949 22.9005C17.2317 23.7795 18.1402 24.3011 19.024 24.0656C19.9078 23.8301 20.4323 22.9266 20.1955 22.0477Z" fill="#EB5569"/>
<path d="M24.3107 19.5818C24.1495 18.9835 23.5312 18.6285 22.9296 18.7888C22.3281 18.9491 21.9711 19.564 22.1323 20.1623C22.2935 20.7606 22.9118 21.1156 23.5134 20.9553C24.1149 20.795 24.4719 20.18 24.3107 19.5818Z" fill="#EB5569"/>
<path d="M19.9578 17.0961C19.8224 16.5937 19.3032 16.2956 18.798 16.4302C18.2929 16.5648 17.9931 17.0812 18.1285 17.5835C18.2638 18.0859 18.783 18.384 19.2882 18.2494C19.7933 18.1148 20.0931 17.5984 19.9578 17.0961Z" fill="#EB5569"/>
</svg>
